<?xml version="1.0" standalone="no"?>
<!DOCTYPE svg PUBLIC "-//W3C//DTD SVG 20010904//EN"
 "http://www.w3.org/TR/2001/REC-SVG-20010904/DTD/svg10.dtd">
<svg version="1.0" xmlns="http://www.w3.org/2000/svg"
 width="260.000000pt" height="280.000000pt" viewBox="0 0 260.000000 280.000000"
 preserveAspectRatio="xMidYMid meet">
<metadata>
Created by potrace 1.16, written by Peter Selinger 2001-2019
</metadata>
<g transform="translate(0.000000,280.000000) scale(0.100000,-0.100000)"
fill="#000000" stroke="none">
<path d="M1220 2188 c-60 -31 -93 -92 -87 -160 4 -46 3 -48 -22 -48 -40 0
-217 -58 -291 -95 -167 -84 -243 -220 -177 -316 23 -35 70 -216 82 -319 12
-97 64 -339 80 -371 26 -50 89 -71 220 -75 225 -7 262 -7 271 -2 5 3 94 6 199
7 204 3 239 10 269 56 20 30 38 100 76 295 17 85 42 211 56 280 40 197 41 219
10 285 -55 120 -232 241 -368 252 l-65 6 5 43 c9 85 -68 167 -169 180 -34 4
-54 0 -89 -18z m149 -28 c44 -22 81 -74 81 -114 0 -30 -28 -91 -37 -82 -3 3
-12 -2 -19 -12 -14 -19 -35 -23 -46 -7 -4 5 -8 1 -8 -10 0 -17 -2 -17 -10 -5
-8 12 -10 12 -10 1 0 -10 -9 -12 -37 -6 -58 11 -96 33 -88 53 3 9 3 13 -1 10
-3 -4 -13 0 -21 8 -9 8 -13 18 -10 21 4 3 3 13 -2 22 -5 10 -2 32 10 58 33 78
118 104 198 63z m-186 -224 c40 -30 101 -49 133 -43 23 4 25 2 19 -27 l-6 -31
18 35 c10 19 25 35 33 35 9 0 26 10 39 22 83 77 333 -21 435 -170 45 -66 58
-121 40 -172 -14 -41 -44 -79 -44 -56 0 7 5 21 10 32 6 10 8 19 6 19 -3 0 -15
-18 -26 -41 -13 -25 -26 -39 -34 -36 -8 3 -19 0 -25 -6 -17 -17 -14 9 5 38 9
14 14 25 11 25 -3 0 -15 -15 -26 -34 -15 -24 -28 -33 -47 -33 -18 0 -24 4 -19
15 4 12 3 13 -10 2 -12 -10 -15 -10 -15 1 0 11 -2 11 -8 2 -12 -19 -55 -4 -47
16 5 13 4 14 -6 4 -19 -19 -39 -16 -33 5 5 16 5 16 -6 -1 -12 -19 -35 -13 -23
6 4 7 0 6 -10 -2 -15 -12 -17 -11 -18 5 0 11 -3 14 -6 6 -7 -18 -23 -4 -17 16
5 16 5 16 -6 0 -10 -16 -13 -16 -48 0 -20 9 -40 22 -44 27 -5 6 -8 6 -8 -2 0
-6 5 -15 10 -18 15 -9 12 -35 -5 -35 -9 0 -12 6 -9 18 3 9 -2 4 -12 -13 -15
-27 -18 -28 -24 -10 -6 18 -7 18 -12 -3 -4 -12 -11 -22 -17 -22 -7 0 -7 9 1
31 6 16 8 32 6 35 -3 2 -10 -14 -17 -36 -9 -29 -17 -40 -29 -38 -9 1 -23 -1
-29 -5 -9 -6 -13 -2 -13 10 -1 16 -2 16 -10 1 -6 -10 -18 -14 -31 -11 -16 5
-19 11 -15 32 l5 26 -12 -27 c-6 -16 -15 -28 -20 -28 -5 0 -7 12 -4 28 l6 27
-12 -27 c-12 -32 -26 -37 -28 -10 -1 15 -2 15 -6 -1 -3 -12 -10 -16 -20 -13
-9 4 -35 11 -59 17 -29 8 -44 17 -44 28 0 13 -2 14 -9 2 -8 -12 -13 -12 -36 3
-22 14 -26 23 -21 44 5 22 4 24 -5 9 -5 -10 -9 -30 -7 -45 3 -23 -2 -28 -27
-33 -16 -4 -47 -7 -68 -8 -36 -1 -37 0 -32 27 l5 27 -11 -27 c-15 -39 -33 -36
-26 5 5 32 5 32 -6 5 -14 -35 -27 -35 -66 -2 l-31 25 20 42 c11 23 15 34 8 24
-7 -10 -19 -26 -26 -35 -12 -15 -13 -15 -9 6 3 12 1 22 -4 22 -5 0 -4 11 1 25
5 14 7 25 4 25 -14 0 30 61 73 102 58 54 164 107 283 142 107 31 134 32 173 2z
m286 -406 c10 -5 58 -21 107 -35 97 -28 234 -36 260 -14 8 6 14 8 14 4 0 -4 7
-2 15 5 12 10 15 9 15 -5 0 -9 -22 -45 -48 -79 -44 -55 -74 -99 -60 -86 4 3
27 32 52 64 35 45 46 54 46 38 0 -11 -5 -24 -10 -27 -6 -4 -8 -14 -5 -24 3 -9
-3 -33 -14 -54 -10 -20 -14 -34 -9 -31 13 8 1 -34 -18 -61 -41 -59 -46 -69
-21 -40 38 43 35 10 -4 -46 -23 -33 -24 -36 -5 -14 18 21 26 25 26 14 0 -9 -3
-19 -7 -23 -5 -4 -9 -17 -10 -29 -4 -54 -14 -91 -33 -125 -12 -20 -15 -28 -6
-18 24 29 20 0 -6 -43 -28 -47 -46 -61 -78 -61 l-27 0 18 88 c20 97 59 354 59
390 0 28 -22 25 -26 -4 -8 -72 -16 -100 -37 -133 -30 -45 -49 -81 -43 -81 2 0
16 21 31 46 30 50 43 52 26 3 -6 -17 -8 -35 -5 -41 3 -5 -2 -20 -11 -35 -9
-14 -12 -22 -5 -18 9 6 10 -1 5 -26 -4 -19 -10 -38 -13 -44 -4 -5 -5 -20 -3
-32 1 -13 -1 -28 -6 -35 -4 -7 -8 -26 -9 -41 -2 -29 -19 -55 -30 -45 -3 4 2
19 12 35 l17 28 -24 -28 c-19 -22 -36 -30 -72 -34 l-47 -6 5 29 c4 23 25 417
25 472 0 25 -19 11 -25 -20 -4 -18 -16 -49 -27 -68 l-20 -35 21 25 c36 44 25
-1 -24 -91 -24 -46 -45 -88 -44 -94 0 -5 18 25 40 69 40 77 59 94 44 39 -5
-15 -7 -38 -6 -50 1 -12 -5 -34 -14 -50 -15 -24 -15 -25 -1 -9 15 19 16 16 16
-40 0 -34 -5 -66 -12 -73 -11 -11 -10 -12 0 -6 10 5 12 -1 6 -32 -3 -21 -11
-43 -15 -49 -5 -6 -41 -12 -79 -13 l-70 -1 2 239 c2 181 0 243 -9 252 -15 15
-15 16 -14 -135 0 -55 -5 -108 -10 -119 -8 -14 -8 -18 0 -13 24 15 10 -52 -24
-114 -19 -36 -34 -69 -34 -75 0 -5 15 19 34 55 32 62 34 63 35 32 0 -18 -5
-43 -11 -54 -8 -15 -8 -19 0 -14 7 5 11 -5 11 -28 0 -30 -4 -36 -20 -36 -17 0
-19 3 -10 19 5 11 10 23 10 28 -1 4 -8 -5 -16 -20 -14 -25 -20 -28 -62 -25
l-47 3 -2 55 c-3 64 -30 364 -39 430 -5 35 -8 41 -14 25 -4 -11 -6 -32 -3 -46
3 -15 0 -37 -7 -49 -8 -15 -8 -20 -1 -16 7 5 11 -2 11 -18 0 -14 -4 -28 -10
-31 -5 -3 -10 -12 -10 -18 0 -8 3 -7 9 2 7 11 10 9 16 -8 4 -13 1 -29 -7 -38
-9 -12 -9 -15 0 -9 8 5 12 0 13 -16 0 -13 3 -52 5 -87 5 -56 2 -71 -21 -113
-14 -26 -24 -48 -21 -48 3 0 15 18 26 40 11 22 23 40 25 40 3 0 5 -20 5 -44
l0 -43 -57 -6 c-39 -4 -62 -2 -70 6 -7 7 -31 125 -53 262 -23 138 -46 255 -52
260 -7 7 -9 -3 -5 -34 3 -25 1 -54 -5 -64 -6 -12 -6 -17 0 -13 12 7 37 -147
27 -165 -5 -7 -4 -10 2 -6 12 8 38 -157 27 -174 -4 -7 -3 -10 3 -6 6 4 13 -6
15 -23 5 -30 4 -31 -33 -27 -43 4 -64 19 -84 57 -18 34 -51 186 -76 350 -11
69 -26 145 -33 170 -8 25 -17 58 -21 74 -5 25 -4 27 12 20 30 -14 155 -17 208
-5 43 10 58 9 110 -10 38 -13 96 -23 157 -26 83 -5 107 -3 167 17 39 12 76 29
82 36 14 17 15 17 38 4z"/>
</g>
</svg>
