<?xml version="1.0" standalone="no"?>
<!DOCTYPE svg PUBLIC "-//W3C//DTD SVG 20010904//EN"
 "http://www.w3.org/TR/2001/REC-SVG-20010904/DTD/svg10.dtd">
<svg version="1.0" xmlns="http://www.w3.org/2000/svg"
 width="612.000000pt" height="612.000000pt" viewBox="0 0 612.000000 612.000000"
 preserveAspectRatio="xMidYMid meet">

<g transform="translate(0.000000,612.000000) scale(0.100000,-0.100000)"
fill="#000000" stroke="none">
<path d="M2590 4349 c-102 -4 -275 -17 -385 -29 -110 -11 -252 -25 -315 -29
-63 -5 -127 -14 -141 -21 -44 -20 -100 -154 -134 -319 -13 -65 -34 -421 -35
-598 l0 -62 -57 -11 c-123 -24 -350 -83 -466 -122 -322 -107 -482 -192 -623
-333 -87 -87 -108 -134 -102 -232 10 -167 143 -317 382 -428 411 -192 972
-310 1806 -382 258 -22 994 -25 1225 -5 596 52 1045 149 1480 322 311 123 473
233 536 365 60 125 29 277 -77 381 -133 129 -400 262 -709 353 -143 42 -417
107 -535 125 l-74 12 -14 69 c-10 53 -21 78 -44 102 -32 33 -186 131 -248 157
-19 8 -41 24 -48 36 -18 30 -72 60 -108 60 -37 0 -135 61 -146 91 -4 11 -17
19 -30 19 -13 0 -66 21 -119 46 -82 40 -98 52 -106 77 -13 47 -53 70 -131 75
-37 3 -69 8 -72 12 -3 4 -43 27 -90 50 -109 55 -137 77 -189 148 -23 33 -54
65 -67 71 -27 12 -78 12 -364 0z m337 -41 c29 -34 66 -89 61 -93 -2 -2 -37 -9
-78 -16 -41 -6 -81 -15 -89 -19 -18 -10 104 -2 148 10 33 9 38 7 85 -38 28
-26 69 -59 90 -72 l39 -24 -59 -13 c-32 -7 -108 -17 -167 -23 -60 -6 -177 -23
-260 -39 -84 -16 -172 -33 -197 -36 -25 -4 -71 -16 -103 -26 l-58 -19 -91 25
c-51 13 -93 23 -95 21 -2 -2 30 -16 72 -31 41 -15 75 -30 75 -33 0 -10 -112 9
-162 28 -29 11 -53 18 -55 16 -6 -6 98 -47 133 -53 19 -3 34 -10 34 -15 0 -29
-204 31 -264 77 -38 29 -86 88 -86 106 0 8 103 44 155 53 17 3 81 13 144 21
115 15 153 25 90 25 -87 0 -363 -53 -375 -71 -8 -14 -24 -11 -24 5 0 17 287
74 599 119 176 25 214 33 171 35 -88 5 -507 -58 -685 -103 -49 -12 -91 -22
-92 -21 -1 0 -4 13 -8 29 -6 22 -4 26 8 21 8 -3 111 10 229 30 260 43 417 63
568 71 135 7 160 11 160 27 0 28 -446 -13 -725 -67 -71 -14 -159 -28 -195 -31
l-65 -6 -20 34 c-11 18 -21 36 -23 41 -2 4 23 7 55 7 32 0 164 12 293 26 129
14 339 29 465 33 127 4 242 8 256 9 15 1 33 -7 46 -20z m93 -79 c46 -61 69
-81 140 -121 84 -48 96 -67 17 -27 -74 37 -137 92 -193 167 -29 40 -46 69 -37
63 10 -5 43 -42 73 -82z m-1161 -141 c12 -48 33 -102 45 -120 49 -73 145 -122
264 -135 49 -5 53 -8 47 -27 -14 -50 -24 -198 -19 -276 5 -66 1 -107 -15 -185
-12 -55 -26 -125 -32 -155 -5 -30 -19 -82 -30 -116 l-19 -60 -72 24 c-39 13
-93 25 -120 28 -26 2 -56 8 -65 14 -31 17 -147 59 -182 66 -60 12 -63 30 -51
392 11 333 16 381 56 519 27 95 43 129 75 165 l23 25 36 -36 c29 -29 40 -52
59 -123z m1436 -78 c3 -5 1 -10 -4 -10 -6 0 -11 5 -11 10 0 6 2 10 4 10 3 0 8
-4 11 -10z m35 -9 c0 -6 -4 -13 -10 -16 -5 -3 -10 1 -10 9 0 9 5 16 10 16 6 0
10 -4 10 -9z m25 -21 c-5 -36 -24 -75 -25 -49 0 30 12 79 21 79 4 0 6 -14 4
-30z m40 20 c3 -5 2 -10 -4 -10 -5 0 -13 5 -16 10 -3 6 -2 10 4 10 5 0 13 -4
16 -10z m82 -32 c-3 -8 -6 -5 -6 6 -1 11 2 17 5 13 3 -3 4 -12 1 -19z m-207
-3 c0 -8 -136 -73 -258 -124 -65 -27 -131 -55 -147 -63 -27 -14 -34 -14 -99 8
-38 13 -81 24 -95 23 -15 0 10 -12 57 -26 45 -15 82 -31 82 -36 0 -11 -24 -6
-143 30 -90 27 -94 35 -23 47 21 4 36 10 33 12 -3 3 -33 0 -66 -7 -120 -23
-68 -2 107 44 202 53 552 112 552 92z m101 -28 c-8 -8 -11 -7 -11 4 0 20 13
34 18 19 3 -7 -1 -17 -7 -23z m-661 -11 c0 -3 -4 -8 -10 -11 -5 -3 -10 -1 -10
4 0 6 5 11 10 11 6 0 10 -2 10 -4z m584 -11 c-6 -16 -24 -21 -24 -7 0 11 11
22 21 22 5 0 6 -7 3 -15z m306 -29 c36 -20 60 -36 53 -36 -6 0 -46 18 -90 41
-43 23 -67 38 -53 35 14 -3 54 -21 90 -40z m-970 24 c0 -5 -5 -10 -11 -10 -5
0 -7 5 -4 10 3 6 8 10 11 10 2 0 4 -4 4 -10z m40 6 c0 -3 -4 -8 -10 -11 -5 -3
-10 -1 -10 4 0 6 5 11 10 11 6 0 10 -2 10 -4z m-70 -16 c0 -5 -4 -10 -10 -10
-5 0 -10 5 -10 10 0 6 5 10 10 10 6 0 10 -4 10 -10z m660 6 c0 -3 -4 -8 -10
-11 -5 -3 -10 -1 -10 4 0 6 5 11 10 11 6 0 10 -2 10 -4z m293 -33 c37 -20 64
-40 62 -44 -3 -4 -47 -23 -99 -43 -121 -47 -163 -76 -182 -124 -1 -1 -12 1
-25 6 -13 5 -49 12 -79 15 -51 5 -49 4 30 -18 72 -20 79 -23 47 -24 -46 -1
-279 49 -288 61 -5 9 -59 -6 -59 -16 0 -3 6 -3 14 0 7 3 69 -9 137 -26 68 -18
153 -35 188 -38 35 -4 66 -12 68 -18 5 -14 -88 -2 -215 30 -53 13 -130 27
-169 31 -40 4 -73 11 -73 15 0 18 61 43 261 105 117 37 230 75 251 86 31 16
42 17 61 8 22 -12 22 -12 3 10 -28 31 -8 26 67 -16z m-993 17 c0 -5 -4 -10
-10 -10 -5 0 -10 5 -10 10 0 6 5 10 10 10 6 0 10 -4 10 -10z m-85 -19 c-3 -6
-11 -8 -17 -5 -6 4 -5 9 3 15 16 10 23 4 14 -10z m50 9 c-3 -5 -13 -10 -21
-10 -8 0 -14 5 -14 10 0 6 9 10 21 10 11 0 17 -4 14 -10z m765 6 c0 -3 -4 -8
-10 -11 -5 -3 -10 -1 -10 4 0 6 5 11 10 11 6 0 10 -2 10 -4z m-854 -33 c-6
-15 -9 -15 -16 -3 -6 9 -5 17 3 22 16 10 21 2 13 -19z m824 23 c0 -2 -7 -7
-16 -10 -8 -3 -12 -2 -9 4 6 10 25 14 25 6z m-864 -43 c-11 -11 -19 6 -11 24
8 17 8 17 12 0 3 -10 2 -21 -1 -24z m819 27 c-3 -5 -12 -10 -18 -10 -7 0 -6 4
3 10 19 12 23 12 15 0z m-845 -38 c0 -15 -2 -15 -10 -2 -13 20 -13 33 0 25 6
-3 10 -14 10 -23z m-32 1 c-5 -25 -28 -28 -28 -4 0 12 6 21 16 21 9 0 14 -7
12 -17z m-56 -74 c-18 -28 -20 -29 -36 -14 -9 9 -16 22 -16 28 0 7 5 6 11 -3
9 -12 10 -11 6 8 -3 12 -1 20 4 16 5 -3 9 2 9 10 0 8 8 19 18 25 25 15 29 -32
4 -70z m218 51 c-20 -13 -63 -13 -55 0 3 6 21 10 38 10 24 0 28 -3 17 -10z
m1326 -47 c-7 -7 -96 39 -96 50 0 4 23 -4 51 -19 28 -14 48 -28 45 -31z
m-1153 9 c88 -29 114 -41 105 -50 -8 -8 -16 -8 -32 0 -12 7 -69 26 -129 43
-59 17 -104 35 -100 38 12 12 36 7 156 -31z m327 28 c0 -5 -5 -10 -11 -10 -5
0 -7 5 -4 10 3 6 8 10 11 10 2 0 4 -4 4 -10z m-582 -32 c-41 -27 -51 -31 -45
-14 4 10 3 15 -3 11 -14 -9 -46 -120 -59 -205 -6 -41 -13 -86 -15 -100 -9 -61
-5 74 5 150 7 64 17 95 36 123 36 52 62 70 80 55 11 -9 12 -13 1 -20z m1277
-33 c-49 -13 -109 -30 -132 -38 -39 -15 -47 -12 -41 11 1 4 43 26 92 49 l91
41 40 -21 40 -20 -90 -22z m-1056 -1 c63 -18 115 -35 116 -36 2 -2 0 -18 -2
-36 -5 -28 -7 -31 -22 -20 -14 11 -14 11 1 -7 9 -11 24 -47 33 -79 19 -63 18
-94 -5 -341 -7 -66 -9 -159 -5 -206 3 -47 3 -98 0 -112 -6 -23 -11 -25 -43
-20 -55 8 -250 63 -302 86 -28 12 -66 19 -100 18 -52 -1 -56 1 -66 27 -6 15
-8 36 -4 46 5 15 8 14 20 -8 13 -25 30 -35 30 -18 0 4 -11 23 -24 42 -12 19
-21 43 -18 53 4 16 7 15 23 -10 12 -18 19 -22 19 -12 0 9 -9 28 -20 42 -22 27
-27 53 -9 41 8 -4 9 1 4 16 -5 15 -4 20 4 16 6 -4 11 -1 11 8 0 8 -5 18 -10
21 -7 4 -7 13 0 26 6 11 8 24 5 30 -4 5 -4 22 0 37 5 19 9 22 15 12 10 -16 17
19 24 135 3 44 15 114 26 155 11 41 21 80 22 87 1 7 5 10 9 7 4 -2 24 7 45 21
44 30 52 29 223 -21z m291 37 c0 -5 -7 -11 -15 -15 -15 -5 -20 5 -8 17 9 10
23 9 23 -2z m595 -11 c-3 -5 -11 -10 -16 -10 -6 0 -7 5 -4 10 3 6 11 10 16 10
6 0 7 -4 4 -10z m-639 -27 c-6 -15 -9 -15 -16 -3 -6 9 -5 17 3 22 16 10 21 2
13 -19z m603 10 c0 -5 -4 -17 -9 -28 -8 -18 -9 -17 -9 8 -1 15 4 27 9 27 6 0
10 -3 9 -7z m371 -7 c0 -11 -19 -15 -25 -6 -3 5 1 10 9 10 9 0 16 -2 16 -4z
m30 -11 c0 -8 -2 -15 -4 -15 -2 0 -6 7 -10 15 -3 8 -1 15 4 15 6 0 10 -7 10
-15z m49 -45 l-1 -35 -8 30 c-4 17 -8 39 -9 50 -1 16 1 17 9 5 5 -8 9 -31 9
-50z m-1712 18 c-3 -7 -5 -2 -5 12 0 14 2 19 5 13 2 -7 2 -19 0 -25z m41 12
c3 -7 0 -10 -7 -6 -14 9 -14 0 -1 -25 8 -13 7 -19 0 -19 -8 0 -9 -11 -5 -31 5
-20 4 -29 -3 -25 -14 8 -13 128 1 123 6 -2 13 -9 15 -17z m1184 -20 c2 -22 0
-40 -4 -40 -5 0 -8 8 -9 18 0 9 -2 27 -5 40 -2 12 0 22 5 22 5 0 11 -18 13
-40z m517 -17 c1 -7 -3 -13 -9 -13 -5 0 -10 17 -9 38 1 33 2 34 9 12 4 -14 8
-31 9 -37z m-62 -5 c-2 -13 -4 -5 -4 17 -1 22 1 32 4 23 2 -10 2 -28 0 -40z
m-1063 26 c9 -23 7 -31 -3 -15 -6 10 -11 1 -16 -28 -7 -44 -22 -61 -31 -37 -3
8 3 27 13 43 16 25 16 27 0 14 -22 -17 -22 -3 0 21 20 22 29 23 37 2z m1148
-16 c-9 -9 -12 -7 -12 12 0 19 3 21 12 12 9 -9 9 -15 0 -24z m-572 -2 c0 -8 3
-21 6 -30 8 -21 -16 -21 -42 -1 -19 15 -19 15 0 30 25 19 36 19 36 1z m200 4
c0 -5 -2 -10 -4 -10 -3 0 -8 5 -11 10 -3 6 -1 10 4 10 6 0 11 -4 11 -10z m-40
-10 c0 -5 -5 -10 -11 -10 -5 0 -7 5 -4 10 3 6 8 10 11 10 2 0 4 -4 4 -10z
m235 -17 c-40 -22 -63 -27 -115 -26 -39 0 -55 -2 -40 -6 22 -6 23 -8 7 -14
-19 -7 -101 2 -93 10 2 3 19 9 38 13 18 5 67 18 108 29 41 11 91 20 110 20
l35 0 -50 -26z m75 -5 c-1 -26 -3 -30 -10 -16 -6 9 -7 23 -4 32 9 25 14 19 14
-16z m-1661 0 c-1 -13 -1 -39 0 -58 1 -27 4 -31 11 -20 6 9 10 10 10 3 0 -21
-19 -24 -29 -4 -14 25 -14 101 -1 101 6 0 10 -10 9 -22z m548 -25 c-3 -10 -5
-2 -5 17 0 19 2 27 5 18 2 -10 2 -26 0 -35z m213 22 c36 -4 113 -20 172 -36
67 -19 152 -34 225 -39 65 -6 141 -15 170 -21 51 -10 52 -11 58 -52 4 -24 5
-57 3 -75 l-3 -33 -37 31 c-51 43 -48 25 3 -20 37 -32 40 -39 37 -75 l-3 -40
-18 36 c-10 19 -39 55 -64 80 -42 39 -44 40 -16 7 18 -21 44 -58 58 -83 15
-25 30 -45 34 -45 5 0 11 -64 14 -142 3 -79 15 -194 27 -257 11 -62 20 -144
20 -181 l0 -68 -87 19 c-48 10 -104 19 -126 19 -21 0 -59 8 -85 19 -26 10 -92
28 -147 41 -55 12 -122 28 -149 36 -26 8 -56 14 -65 14 -10 0 -38 7 -63 15
-71 25 -113 92 -109 175 l1 25 25 -30 c13 -16 24 -24 25 -17 0 7 -11 24 -25
38 -19 18 -24 32 -19 47 6 20 7 20 20 2 8 -10 17 -16 20 -12 3 3 -3 18 -15 33
-25 32 -27 44 -6 44 8 0 15 5 15 10 0 6 -4 10 -10 10 -5 0 -10 11 -10 25 0 19
4 23 18 19 15 -5 14 -3 -2 10 -18 14 -20 33 -24 206 -3 142 -2 190 7 190 14 0
44 66 38 83 -2 7 -11 -8 -20 -33 -15 -40 -17 -41 -12 -11 7 45 22 63 44 52 9
-5 46 -13 81 -16z m1080 -12 c0 -2 -9 1 -19 7 -11 5 -25 10 -33 10 -15 0 132
-72 149 -73 7 0 10 -4 7 -9 -4 -5 1 -8 9 -6 15 3 117 -62 117 -75 0 -5 -19 6
-42 24 -68 52 -76 55 -28 11 l45 -41 -50 15 c-27 8 -110 31 -184 50 -74 18
-136 36 -138 38 -14 13 42 14 72 1 42 -17 90 -21 65 -5 -8 5 -32 12 -54 16
l-39 6 39 33 c36 30 40 32 61 18 13 -9 23 -17 23 -20z m-206 -8 c3 -8 1 -15
-4 -15 -6 0 -10 7 -10 15 0 8 2 15 4 15 2 0 6 -7 10 -15z m-24 -15 c0 -5 -4
-10 -10 -10 -5 0 -10 5 -10 10 0 6 5 10 10 10 6 0 10 -4 10 -10z m-255 -12
c25 -7 45 -16 45 -21 0 -5 -10 -6 -22 -3 -13 4 -43 10 -66 13 -29 4 -39 9 -30
14 17 11 20 11 73 -3z m205 -8 c0 -5 -2 -10 -4 -10 -3 0 -8 5 -11 10 -3 6 -1
10 4 10 6 0 11 -4 11 -10z m-29 -13 c-1 -12 -15 -9 -19 4 -3 6 1 10 8 8 6 -3
11 -8 11 -12z m-36 -7 c3 -5 3 -15 -1 -21 -6 -11 -23 6 -24 24 0 10 18 9 25
-3z m265 -24 c41 -10 116 -31 165 -46 50 -16 101 -31 115 -33 20 -3 19 -5 -8
-6 -18 0 -90 17 -161 38 -70 22 -145 42 -167 46 -21 3 33 -17 120 -45 145 -45
211 -71 146 -56 -137 32 -394 97 -398 101 -5 5 21 8 68 7 19 -1 20 1 6 5 -15
4 -16 7 -5 13 7 5 20 5 28 1 9 -5 50 -16 91 -25z m-1183 -8 c-3 -8 -6 -5 -6 6
-1 11 2 17 5 13 3 -3 4 -12 1 -19z m891 -8 c2 -18 0 -21 -6 -12 -7 11 -10 9
-15 -7 -6 -24 -37 -29 -37 -5 0 51 52 72 58 24z m-1466 -8 c3 -9 2 -26 -2 -37
-6 -15 -8 -10 -8 18 0 40 3 47 10 19z m1771 -57 c120 -30 228 -55 240 -55 27
-1 52 -34 65 -86 13 -50 13 -349 0 -391 -7 -23 -6 -44 3 -70 12 -37 15 -287 3
-325 -10 -34 -150 -24 -412 29 -75 15 -86 20 -112 54 -17 20 -30 45 -30 55 1
16 4 14 21 -8 11 -16 27 -28 36 -28 9 0 0 17 -26 46 -23 26 -41 56 -41 67 0
19 1 20 20 2 29 -26 25 -3 -4 25 -15 13 -25 34 -25 49 1 14 -2 73 -5 131 -27
470 -28 506 -17 533 8 20 17 27 38 27 16 0 126 -25 246 -55z m-1746 -7 c-3 -7
-5 -2 -5 12 0 14 2 19 5 13 2 -7 2 -19 0 -25z m560 10 c-3 -8 -6 -5 -6 6 -1
11 2 17 5 13 3 -3 4 -12 1 -19z m852 -14 c6 -15 10 -28 8 -31 -6 -5 -31 27
-33 43 -4 23 12 16 25 -12z m646 -31 c-5 -29 -9 -34 -16 -22 -5 10 -4 26 4 42
16 34 21 26 12 -20z m-2088 5 c-3 -8 -6 -5 -6 6 -1 11 2 17 5 13 3 -3 4 -12 1
-19z m590 -10 c-3 -8 -6 -5 -6 6 -1 11 2 17 5 13 3 -3 4 -12 1 -19z m-518 -31
c1 -5 -3 -5 -9 -2 -5 3 -10 16 -9 28 0 21 1 21 9 2 5 -11 9 -24 9 -28z m1366
13 c20 -39 19 -47 -5 -25 -11 10 -20 26 -20 37 0 26 7 22 25 -12z m-1448 -27
c-3 -10 -5 -4 -5 12 0 17 2 24 5 18 2 -7 2 -21 0 -30z m2123 2 c0 -13 -4 -27
-10 -30 -6 -4 -10 8 -10 30 0 22 4 34 10 30 6 -3 10 -17 10 -30z m-2093 3 c-3
-8 -6 -5 -6 6 -1 11 2 17 5 13 3 -3 4 -12 1 -19z m573 -4 c0 -8 -4 -12 -10 -9
-5 3 -10 13 -10 21 0 8 5 12 10 9 6 -3 10 -13 10 -21z m850 -57 c0 -20 0 -20
-15 -1 -20 27 -20 51 0 34 8 -7 15 -22 15 -33z m-1458 1 c-9 -9 -12 -7 -12 12
0 19 3 21 12 12 9 -9 9 -15 0 -24z m25 10 c-3 -8 -6 -5 -6 6 -1 11 2 17 5 13
3 -3 4 -12 1 -19z m583 -4 c0 -8 -4 -14 -10 -14 -5 0 -10 9 -10 21 0 11 5 17
10 14 6 -3 10 -13 10 -21z m-35 -142 c-11 -76 -17 -37 -8 55 7 76 8 81 11 38
2 -27 1 -70 -3 -93z m902 101 c-3 -10 -5 -4 -5 12 0 17 2 24 5 18 2 -7 2 -21
0 -30z m-17 -32 c0 -11 -4 -9 -15 5 -8 10 -14 28 -14 39 0 18 1 17 14 -5 8
-14 14 -31 15 -39z m680 31 c0 -15 -2 -15 -10 -2 -13 20 -13 33 0 25 6 -3 10
-14 10 -23z m-2110 -8 c0 -8 -4 -12 -10 -9 -5 3 -10 13 -10 21 0 8 5 12 10 9
6 -3 10 -13 10 -21z m590 -17 c0 -5 -7 -4 -15 3 -8 7 -15 20 -15 29 1 13 3 13
15 -3 8 -11 15 -24 15 -29z m-620 7 c0 -8 -4 -12 -10 -9 -5 3 -10 13 -10 21 0
8 5 12 10 9 6 -3 10 -13 10 -21z m2470 -53 c492 -121 710 -207 925 -366 108
-79 164 -159 165 -230 0 -49 -46 -133 -104 -188 -178 -172 -738 -384 -1266
-481 -664 -122 -1336 -137 -2205 -50 -822 82 -1533 296 -1738 523 -116 129
-130 215 -48 318 113 144 358 276 726 392 129 41 437 123 442 118 3 -4 3 -54
-2 -172 -4 -111 -4 -111 -80 -91 -45 11 -21 -7 33 -25 66 -22 67 -41 0 -23
-93 24 -86 14 12 -20 52 -18 141 -49 196 -68 56 -20 121 -39 145 -43 l44 -8
-30 -12 c-25 -11 -35 -10 -65 5 -50 25 -148 55 -275 86 -91 22 -125 25 -196
21 -102 -6 -143 -22 -201 -74 -61 -56 -118 -97 -124 -90 -10 10 25 64 67 102
55 49 261 148 374 179 97 27 81 34 -25 12 -99 -21 -221 -71 -304 -126 -78 -51
-121 -102 -132 -158 -4 -18 -13 -32 -20 -32 -35 0 19 114 77 163 81 70 278
157 423 187 31 6 56 16 56 22 0 18 -99 2 -197 -30 -250 -84 -368 -180 -382
-312 -5 -41 -10 -56 -23 -58 -24 -5 -23 28 2 78 29 56 24 74 -5 20 -13 -25
-24 -60 -25 -77 0 -30 -3 -33 -31 -33 -29 0 -30 1 -24 33 4 17 16 49 26 70 11
20 15 37 11 37 -12 0 -40 -65 -50 -115 -10 -50 -42 -63 -42 -17 0 16 5 43 11
61 6 18 9 35 5 38 -9 10 -28 -49 -30 -96 -2 -32 -8 -48 -27 -61 -17 -14 -26
-15 -31 -7 -14 22 -8 72 12 105 23 37 24 42 10 42 -27 0 -52 -97 -37 -148 6
-20 9 -47 8 -59 -3 -29 14 -60 42 -74 38 -21 158 -41 268 -44 l105 -3 77 -50
c82 -54 212 -106 293 -117 73 -11 45 7 -71 45 -105 34 -173 65 -237 108 -63
41 -36 36 38 -8 80 -47 163 -75 178 -60 6 6 4 11 -5 14 -92 30 -122 41 -169
66 -53 27 -54 29 -30 38 20 7 31 5 55 -13 59 -45 155 -85 155 -65 0 6 -33 26
-74 44 -40 19 -76 38 -80 44 -9 15 101 48 221 66 64 10 136 29 194 53 87 34
95 36 151 27 64 -11 79 -1 21 13 l-38 10 35 7 c132 26 161 24 321 -20 85 -24
156 -43 158 -43 17 -3 -31 -18 -199 -61 -106 -27 -216 -60 -244 -74 -75 -35
-196 -124 -196 -144 0 -25 35 -78 65 -98 16 -11 54 -19 99 -22 82 -5 203 21
387 84 78 26 132 37 217 44 65 6 170 24 252 45 138 35 210 44 210 26 0 -17
-42 -40 -140 -78 -107 -41 -137 -57 -162 -87 -22 -26 -23 -58 -3 -96 22 -42
67 -48 179 -22 50 12 114 23 141 26 28 2 85 18 127 35 43 17 144 47 225 66 81
19 186 47 232 62 l84 27 81 -22 c130 -34 133 -35 114 -23 -9 6 -56 22 -104 34
l-88 24 33 16 c26 13 42 14 84 6 28 -5 108 -16 177 -24 69 -8 151 -22 183 -30
32 -8 100 -15 152 -15 84 0 96 2 115 22 18 20 25 39 21 61 -1 5 12 6 29 2 39
-9 39 7 0 22 -17 6 -30 19 -30 28 0 12 5 15 18 10 9 -4 28 -10 42 -12 17 -3
11 2 -16 15 -23 11 -44 27 -47 36 -9 22 5 20 63 -9 28 -14 50 -21 50 -16 0 5
-25 22 -56 37 -52 25 -74 47 -61 60 3 3 34 -9 68 -26 70 -34 47 -8 -28 32 -24
13 -43 27 -43 32 0 12 50 -3 81 -25 30 -21 39 -23 39 -11 0 5 -16 17 -35 28
-27 14 -32 20 -20 27 18 9 92 -22 169 -71 28 -18 57 -32 65 -32 20 0 -41 41
-124 84 -47 24 -61 35 -50 40 30 11 50 6 124 -29 41 -20 76 -34 78 -31 5 5
-70 50 -112 66 -28 11 -28 13 -10 20 33 14 57 11 120 -16 95 -40 92 -39 74
-20 -8 9 -41 27 -71 40 l-56 22 28 11 c23 8 37 7 71 -8 55 -25 76 -18 25 8
-35 18 -37 21 -20 27 12 3 38 -1 58 -9 53 -22 69 -13 22 12 -36 19 -38 21 -18
27 24 8 67 -11 131 -61 24 -18 49 -33 54 -33 20 0 -38 51 -91 82 -44 25 -51
33 -38 40 17 9 88 -35 174 -108 23 -20 42 -32 42 -26 0 17 -79 89 -128 118
-26 15 -48 28 -49 29 -2 1 5 17 15 37 l18 35 55 -38 c60 -42 69 -45 69 -24 0
22 -132 110 -255 171 -121 59 -225 95 -342 119 -43 9 -80 18 -82 21 -3 2 -7
45 -9 94 -4 74 -2 89 9 86 8 -3 142 -36 299 -75z m-2480 -4 c0 -10 -4 -15 -10
-12 -5 3 -10 18 -10 33 0 21 2 24 10 12 5 -8 10 -23 10 -33z m630 -11 c0 -20
0 -20 -15 0 -8 10 -14 28 -14 39 0 20 0 20 14 1 8 -11 15 -29 15 -40z m840 -3
c0 -7 7 -13 15 -13 8 0 15 -8 15 -17 0 -12 -9 -7 -30 17 -16 18 -30 40 -30 49
0 11 3 10 15 -5 8 -10 15 -25 15 -31z m30 26 c0 -6 -4 -7 -10 -4 -5 3 -10 11
-10 16 0 6 5 7 10 4 6 -3 10 -11 10 -16z m647 -1 c-3 -8 -6 -5 -6 6 -1 11 2
17 5 13 3 -3 4 -12 1 -19z m-2123 -4 c3 -8 2 -12 -4 -9 -6 3 -10 10 -10 16 0
14 7 11 14 -7z m-34 -67 c0 -10 -4 -15 -10 -12 -5 3 -10 18 -10 33 0 21 2 24
10 12 5 -8 10 -23 10 -33z m639 -12 c0 -5 -6 -1 -14 9 -8 11 -15 27 -15 35 1
17 29 -26 29 -44z m851 -12 c0 -4 -9 3 -20 15 -11 12 -20 29 -20 39 0 12 6 8
20 -15 11 -18 20 -35 20 -39z m661 26 c-9 -22 -10 -22 -10 -3 -1 11 2 24 6 27
12 12 14 0 4 -24z m-1521 -48 c-1 -13 -3 -13 -15 3 -19 26 -19 42 0 26 8 -7
15 -20 15 -29z m-640 -8 c0 -7 -4 -13 -10 -13 -5 0 -10 12 -10 28 0 21 2 24
10 12 5 -8 10 -21 10 -27z m1477 -6 c1 -18 5 -44 9 -59 4 -18 2 -28 -5 -28 -6
0 -11 12 -12 28 -1 15 -3 44 -5 66 -1 21 0 35 4 32 3 -4 7 -21 9 -39z m-1982
23 c3 -5 2 -10 -4 -10 -5 0 -13 5 -16 10 -3 6 -2 10 4 10 5 0 13 -4 16 -10z
m1102 -22 c-3 -7 -5 -2 -5 12 0 14 2 19 5 13 2 -7 2 -19 0 -25z m1577 -41 l-7
-42 -9 35 c-4 19 -5 46 -2 60 10 44 27 -4 18 -53z m-2614 53 c8 -5 11 -12 8
-15 -4 -4 -17 0 -30 9 -24 17 -5 23 22 6z m-72 -23 c9 -7 10 -13 3 -20 -7 -7
-19 -3 -36 13 -19 18 -24 20 -19 7 3 -10 1 -17 -5 -17 -12 0 -15 23 -4 33 8 8
42 -1 61 -16z m1152 -29 c0 -14 -18 -9 -24 8 -11 28 -6 39 9 20 8 -11 15 -23
15 -28z m870 9 c0 -5 -4 -5 -10 -2 -5 3 -10 14 -10 23 0 15 2 15 10 2 5 -8 10
-19 10 -23z m-1970 13 c0 -6 9 -20 20 -32 l20 -22 0 25 1 24 24 -30 c21 -26
24 -26 18 -7 -3 12 -9 25 -14 28 -5 3 -9 10 -9 16 0 7 13 -6 29 -27 16 -22 27
-45 24 -52 -3 -7 2 -13 11 -13 8 0 20 -9 26 -20 12 -23 4 -25 -34 -10 -14 5
-26 16 -26 24 0 9 -9 20 -19 26 -27 14 -31 13 -31 -8 0 -23 19 -42 42 -42 10
0 18 -6 18 -14 0 -8 8 -17 19 -21 10 -3 26 -14 36 -25 23 -25 9 -26 -63 -5
-39 12 -50 19 -45 31 5 13 9 12 29 -7 12 -11 27 -20 33 -18 5 2 -8 19 -29 37
-22 18 -40 28 -40 23 0 -6 -7 -11 -15 -11 -8 0 -15 3 -15 8 0 4 -16 20 -35 35
l-35 28 12 -28 c7 -15 18 -32 25 -36 7 -4 13 -12 13 -17 0 -17 -20 -11 -45 14
-22 22 -23 28 -14 55 14 40 30 39 76 -6 20 -21 32 -31 26 -23 -19 26 -53 90
-53 100 0 6 5 10 10 10 6 0 10 -5 10 -10z m2782 -26 c140 -38 384 -142 336
-144 -10 0 -46 16 -80 35 -72 39 -219 89 -313 107 -44 8 -65 16 -65 26 0 9 6
12 18 7 9 -4 56 -18 104 -31z m-2338 10 c3 -8 1 -24 -4 -35 -6 -10 -8 -30 -4
-44 8 -34 -4 -32 -17 2 -11 29 -4 93 10 93 5 0 12 -7 15 -16z m626 -21 c0 -7
-4 -13 -10 -13 -5 0 -10 12 -10 28 0 21 2 24 10 12 5 -8 10 -21 10 -27z
m-1175 -3 c3 -5 1 -10 -4 -10 -6 0 -11 5 -11 10 0 6 2 10 4 10 3 0 8 -4 11
-10z m298 -13 c-3 -17 2 -26 22 -37 15 -8 31 -22 36 -32 8 -15 6 -18 -11 -18
-11 0 -20 -5 -20 -12 0 -8 -7 -6 -17 5 -15 15 -16 19 -4 26 12 8 9 15 -12 41
-32 37 -34 50 -8 50 14 0 17 -6 14 -23z m50 11 c31 -16 45 -38 39 -60 -3 -15
-7 -16 -19 -7 -8 7 -12 18 -9 24 5 15 -4 29 -29 43 -26 15 -10 15 18 0z m2573
-27 c49 -16 123 -44 164 -62 l75 -34 -73 -7 c-66 -7 -78 -5 -120 16 -48 24
-123 48 -129 42 -2 -2 27 -18 64 -36 101 -49 47 -53 -69 -5 -10 4 -18 3 -18
-3 0 -5 14 -16 32 -23 l32 -13 -53 -13 c-29 -8 -55 -12 -57 -10 -2 2 -7 46
-11 97 l-6 93 40 -6 c23 -4 81 -20 129 -36z m-2658 4 c9 -19 9 -25 -1 -25 -6
0 -17 11 -24 25 -9 19 -8 25 1 25 7 0 18 -11 24 -25z m1809 -7 c-3 -8 -6 -5
-6 6 -1 11 2 17 5 13 3 -3 4 -12 1 -19z m-897 -13 c0 -8 -4 -15 -10 -15 -5 0
-10 7 -10 15 0 8 5 15 10 15 6 0 10 -7 10 -15z m-1150 -26 c0 -5 -7 -6 -15 -3
-8 4 -15 13 -15 21 0 13 3 13 15 3 8 -7 15 -16 15 -21z m419 7 c7 -13 11 -31
9 -40 -2 -11 -10 -3 -26 24 -16 29 -19 40 -9 40 7 0 19 -11 26 -24z m26 13
c11 -17 -1 -21 -15 -4 -8 9 -8 15 -2 15 6 0 14 -5 17 -11z m1582 -26 c-3 -10
-5 -4 -5 12 0 17 2 24 5 18 2 -7 2 -21 0 -30z m686 -157 c-7 -23 -9 -2 -10 84
l-1 115 10 -84 c6 -51 7 -95 1 -115z m-2208 111 c3 -43 -17 -16 -21 30 -3 33
-2 35 8 18 6 -11 12 -32 13 -48z m1555 32 c0 -5 -4 -9 -10 -9 -5 0 -10 7 -10
16 0 8 5 12 10 9 6 -3 10 -10 10 -16z m-1427 -24 c38 -37 63 -46 53 -19 -3 9
-2 12 5 9 6 -4 8 -14 4 -22 -6 -17 19 -63 35 -63 6 0 10 9 10 20 0 11 -5 20
-12 20 -6 0 -8 3 -5 6 4 4 12 2 19 -3 32 -26 65 0 34 26 -11 9 -15 9 -19 -1
-4 -10 -7 -11 -18 0 -11 10 -10 12 4 12 9 0 17 4 17 9 0 6 12 6 31 -1 16 -6
28 -13 25 -15 -10 -10 15 -43 32 -43 9 0 23 -9 30 -21 7 -12 16 -18 20 -15 3
4 -10 22 -28 41 -19 19 -29 35 -23 35 19 0 83 -79 83 -104 0 -13 10 -30 23
-39 12 -8 18 -19 14 -23 -5 -5 -24 8 -43 29 -19 20 -36 37 -39 37 -3 0 -5 -12
-5 -27 l0 -27 -30 29 c-16 16 -30 39 -30 52 0 19 -5 23 -30 23 -22 0 -28 -4
-24 -15 4 -8 15 -15 25 -15 10 0 19 -4 19 -9 0 -13 -34 -24 -38 -12 -2 6 -7
11 -12 11 -16 0 21 -58 40 -63 11 -3 20 -10 20 -17 0 -6 -5 -8 -12 -3 -7 4
-21 6 -30 5 -9 -2 -19 6 -23 17 -3 11 -22 34 -42 52 -36 31 -37 31 -44 10 -5
-11 -14 -21 -20 -21 -14 0 -59 47 -59 62 0 6 9 -1 21 -16 11 -14 28 -26 36
-26 14 0 13 3 -2 20 -17 18 -17 20 -2 14 27 -10 21 25 -8 48 -14 11 -25 26
-25 33 0 8 -8 19 -17 24 -10 6 -13 11 -7 11 6 0 27 -16 47 -35z m517 20 c0 -8
-2 -15 -4 -15 -2 0 -6 7 -10 15 -3 8 -1 15 4 15 6 0 10 -7 10 -15z m-476 -10
c-5 -11 -11 -12 -25 -4 -26 13 -24 19 6 19 17 0 23 -4 19 -15z m1384 -41 c-4
-3 -12 5 -18 18 -12 22 -12 22 6 6 10 -10 15 -20 12 -24z m-1778 6 c0 -13 10
-24 26 -30 35 -14 36 -13 24 10 -9 16 -8 20 5 20 8 0 15 -7 15 -15 0 -8 6 -15
13 -15 6 0 1 -9 -12 -19 -24 -19 -25 -19 -62 17 -21 19 -36 39 -33 43 10 16
24 9 24 -11z m121 -13 c-9 -9 -14 -8 -21 3 -16 24 -11 31 11 19 16 -8 18 -14
10 -22z m749 18 c0 -8 -2 -15 -4 -15 -2 0 -6 7 -10 15 -3 8 -1 15 4 15 6 0 10
-7 10 -15z m-550 -10 c20 -24 6 -28 -15 -5 -10 11 -13 20 -8 20 6 0 16 -7 23
-15z m-653 -30 c50 -13 129 -39 175 -57 l83 -32 -190 -62 c-347 -114 -575
-146 -575 -83 0 13 101 31 143 26 23 -3 34 -3 25 0 -10 2 -18 9 -18 14 0 5 8
9 18 10 9 0 26 3 37 6 31 9 87 9 118 0 19 -5 27 -4 22 3 -3 5 -16 10 -28 10
-21 1 -21 1 -3 11 10 6 35 9 55 5 24 -3 31 -2 21 4 -12 8 -11 12 7 32 31 33
38 70 19 107 -9 17 -13 31 -9 31 5 0 49 -11 100 -25z m547 -14 c-6 -6 -24 19
-24 34 1 6 7 1 15 -9 8 -11 12 -22 9 -25z m416 29 c0 -5 -2 -10 -4 -10 -3 0
-8 5 -11 10 -3 6 -1 10 4 10 6 0 11 -4 11 -10z m77 -29 c7 -9 27 -31 45 -48
24 -24 28 -33 15 -33 -9 0 -31 20 -50 45 -19 24 -36 43 -38 41 -2 -2 -10 3
-18 11 -12 13 -11 14 10 8 13 -4 30 -14 36 -24z m250 -30 c-7 -2 -18 -8 -24
-14 -10 -7 -13 1 -13 34 l0 44 24 -30 c16 -19 20 -31 13 -34z m-87 28 c0 -5
-4 -9 -10 -9 -5 0 -10 7 -10 16 0 8 5 12 10 9 6 -3 10 -10 10 -16z m920 -11
c0 -6 -7 -5 -15 2 -8 7 -15 17 -15 22 0 6 7 5 15 -2 8 -7 15 -17 15 -22z
m1190 15 c0 -16 -197 -123 -227 -123 -8 0 -24 -6 -36 -14 -27 -17 -189 -72
-237 -80 -53 -9 -18 8 102 50 208 73 269 112 232 148 -18 19 -11 19 -147 6
-60 -6 -130 -19 -158 -29 -40 -16 -49 -16 -49 -5 0 8 1 14 3 14 1 0 38 7 82
16 44 9 154 19 245 23 159 6 190 5 190 -6z m-3546 -2 c4 -5 -4 -7 -16 -3 -13
3 -19 1 -15 -5 4 -6 -4 -8 -21 -5 -24 5 -24 6 -7 13 28 11 53 11 59 0z m120
-7 c21 -20 20 -30 -4 -54 -28 -28 -44 -25 -25 4 13 19 14 29 5 45 -13 25 2 28
24 5z m646 -13 c0 -17 -18 -21 -24 -6 -3 9 0 15 9 15 8 0 15 -4 15 -9z m125
-48 c9 -32 -10 -29 -33 5 -24 34 -18 63 8 36 10 -11 21 -29 25 -41z m-928 31
c67 -20 63 -31 -6 -14 -58 14 -90 8 -48 -9 55 -22 17 -25 -55 -5 -26 8 -22
-11 5 -24 20 -10 20 -11 2 -11 -11 0 -28 4 -38 8 -18 6 -18 7 0 22 27 22 67
48 76 48 5 1 34 -6 64 -15z m1322 -31 c37 -56 40 -75 6 -43 -14 13 -25 31 -25
41 0 9 -7 19 -15 23 -8 3 -15 10 -15 16 0 22 20 8 49 -37z m81 4 c0 -6 -9 -2
-20 8 -11 10 -20 23 -20 28 0 6 9 2 20 -8 11 -10 20 -23 20 -28z m87 11 c-3
-8 -6 -5 -6 6 -1 11 2 17 5 13 3 -3 4 -12 1 -19z m1903 17 c0 -4 -19 -14 -42
-25 -40 -17 -44 -18 -70 -2 -15 9 -28 20 -28 24 0 4 32 8 70 8 39 0 70 -2 70
-5z m-2686 -17 c-3 -4 -12 -8 -20 -8 -8 0 -12 -4 -9 -10 3 -5 0 -10 -8 -10
-25 0 -27 13 -4 25 26 13 48 15 41 3z m1686 -21 c0 -5 -4 -5 -10 -2 -5 3 -10
14 -10 23 0 15 2 15 10 2 5 -8 10 -19 10 -23z m865 8 c19 -16 24 -25 15 -25
-16 0 -80 36 -80 45 0 13 38 2 65 -20z m-2095 -33 c0 -26 -25 -5 -28 24 -2 28
-2 28 13 10 8 -11 15 -26 15 -34z m2039 21 c39 -22 42 -27 26 -33 -14 -5 -31
2 -57 23 -21 17 -38 32 -38 34 0 10 29 0 69 -24z m-2324 7 c3 -5 1 -10 -4 -10
-6 0 -11 5 -11 10 0 6 2 10 4 10 3 0 8 -4 11 -10z m765 -27 c0 -11 -7 -10 -30
7 -16 12 -30 23 -30 25 0 2 14 -1 30 -6 17 -6 30 -18 30 -26z m1504 5 c34 -27
36 -33 20 -38 -11 -4 -31 2 -51 16 -19 12 -39 25 -46 28 -9 3 -8 7 3 15 23 16
32 14 74 -21z m-2517 6 c-3 -3 -12 -4 -19 -1 -8 3 -5 6 6 6 11 1 17 -2 13 -5z
m421 -15 c14 -22 18 -22 -49 -3 -17 5 -19 8 -8 15 23 14 43 10 57 -12z m429
-1 c-3 -8 -6 -5 -6 6 -1 11 2 17 5 13 3 -3 4 -12 1 -19z m119 3 c18 -14 21
-20 10 -24 -14 -6 -24 2 -40 31 -10 18 2 15 30 -7z m-346 -33 c0 -4 -9 -3 -19
4 -11 6 -17 18 -13 26 4 12 8 12 19 -4 7 -10 13 -22 13 -26z m337 -8 c16 -19
28 -41 25 -49 -5 -16 24 -42 41 -36 7 3 20 -7 30 -20 10 -14 13 -25 7 -25 -29
0 -69 33 -91 74 -13 25 -28 46 -32 46 -4 0 -2 -10 4 -22 9 -19 9 -21 -2 -10
-20 19 -31 14 -23 -10 6 -22 6 -22 -14 2 -18 21 -19 27 -7 36 17 13 20 44 5
44 -5 0 -10 4 -10 10 0 17 36 -4 67 -40z m-1747 30 c12 -8 9 -10 -13 -10 -16
0 -26 4 -22 10 8 12 16 12 35 0z m753 3 c-7 -2 -21 -2 -30 0 -10 3 -4 5 12 5
17 0 24 -2 18 -5z m839 -25 c-9 -9 -12 -7 -12 12 0 19 3 21 12 12 9 -9 9 -15
0 -24z m313 22 c17 -7 17 -9 3 -9 -10 -1 -18 -8 -18 -16 0 -8 8 -15 18 -16 11
0 12 -2 4 -6 -16 -6 -52 24 -52 44 0 15 15 16 45 3z m1282 -22 c-3 -7 -5 -2
-5 12 0 14 2 19 5 13 2 -7 2 -19 0 -25z m82 -1 c10 -12 6 -17 -20 -26 -18 -6
-34 -11 -35 -11 -7 0 -4 56 2 63 8 8 36 -7 53 -26z m-721 -2 c-3 -3 -9 2 -12
12 -6 14 -5 15 5 6 7 -7 10 -15 7 -18z m-1177 -2 c13 -16 12 -17 -3 -4 -17 13
-22 21 -14 21 2 0 10 -8 17 -17z m109 2 c0 -8 -4 -15 -10 -15 -5 0 -10 7 -10
15 0 8 5 15 10 15 6 0 10 -7 10 -15z m-1527 -2 c-7 -2 -19 -2 -25 0 -7 3 -2 5
12 5 14 0 19 -2 13 -5z m702 -3 c-3 -5 -12 -7 -20 -3 -21 7 -19 13 6 13 11 0
18 -4 14 -10z m380 0 l20 -9 -20 1 c-11 0 -31 4 -45 8 l-25 8 25 0 c14 0 34
-3 45 -8z m839 -21 c23 -21 13 -38 -12 -22 -15 9 -18 7 -19 -8 -1 -10 6 -24
16 -31 21 -16 35 -38 24 -38 -5 0 -25 20 -45 44 -58 69 -27 116 36 55z m140 0
c3 -19 13 -33 25 -36 24 -6 36 -33 16 -33 -10 0 -15 -10 -16 -27 0 -27 -1 -27
-9 -6 -9 23 -51 40 -69 29 -5 -3 -12 0 -14 6 -4 9 -6 8 -6 -2 -1 -9 4 -21 11
-28 9 -9 9 -12 0 -12 -7 0 -12 4 -12 9 0 5 -10 11 -22 13 -15 2 -23 10 -23 23
0 11 6 19 13 18 6 -2 12 2 12 8 0 7 10 9 25 5 29 -7 32 1 8 20 -15 11 -16 13
-2 14 8 0 20 -4 27 -10 9 -7 9 -7 2 2 -16 19 -12 38 9 38 13 0 20 -10 25 -31z
m-1404 11 c13 -8 13 -10 -2 -10 -9 0 -20 5 -23 10 -8 13 5 13 25 0z m1459 0
c10 -5 31 -34 46 -65 15 -31 30 -54 32 -51 3 3 0 12 -7 21 -10 13 -9 15 9 15
24 0 28 -22 7 -39 -10 -8 -16 -9 -21 -1 -9 15 -22 12 -29 -6 -4 -9 0 -24 9
-34 25 -28 17 -32 -12 -6 -29 27 -45 27 -22 0 12 -15 12 -17 -1 -12 -19 6 -21
68 -3 68 7 0 13 -5 13 -12 0 -6 3 -9 6 -6 5 5 -20 67 -48 121 -10 19 -5 21 21
7z m-994 -24 c99 -27 170 -54 162 -62 -6 -7 -294 64 -317 77 -32 18 67 8 155
-15z m110 -2 c67 -21 121 -43 107 -44 -13 0 -224 60 -232 67 -8 7 84 -10 125
-23z m1375 -14 c12 -23 12 -24 -3 -11 -10 7 -17 20 -17 29 0 18 3 16 20 -18z
m627 -87 c-2 -21 -4 -4 -4 37 0 41 2 58 4 38 2 -21 2 -55 0 -75z m-3320 91
c-3 -3 -12 -4 -19 -1 -8 3 -5 6 6 6 11 1 17 -2 13 -5z m2327 -4 c15 -5 26 -17
26 -28 0 -15 5 -18 28 -14 15 2 32 9 38 13 7 6 27 -12 57 -51 27 -35 42 -62
36 -66 -6 -3 -19 2 -30 12 -20 18 -27 6 -7 -14 13 -13 8 -15 -16 -6 -10 4 -14
14 -11 28 4 14 -1 25 -15 34 -33 20 -36 -11 -4 -53 15 -19 24 -38 20 -42 -3
-3 -6 -1 -6 5 0 7 -7 12 -15 12 -8 0 -15 9 -15 20 0 13 -7 20 -19 20 -12 0
-25 13 -35 35 -9 19 -23 35 -30 35 -8 0 -16 8 -19 18 -2 9 -8 25 -12 35 -8 20
-5 20 29 7z m-2354 -20 c0 -5 -6 -10 -14 -10 -8 0 -18 5 -21 10 -3 6 3 10 14
10 12 0 21 -4 21 -10z m1660 7 c0 -2 -10 -12 -22 -23 l-23 -19 19 23 c18 21
26 27 26 19z m-106 -32 c-9 -14 -21 -25 -27 -25 -6 0 0 11 13 25 13 14 25 25
27 25 2 0 -4 -11 -13 -25z m53 0 c-4 -8 -14 -15 -23 -15 -16 0 -16 2 1 20 20
22 31 20 22 -5z m228 15 c3 -5 -1 -10 -9 -10 -9 0 -16 5 -16 10 0 6 4 10 9 10
6 0 13 -4 16 -10z m945 -10 c9 -16 8 -20 -5 -20 -8 0 -15 9 -15 20 0 11 2 20
5 20 2 0 9 -9 15 -20z m-2820 -5 c18 -10 20 -14 8 -15 -23 0 -48 11 -48 21 0
12 11 11 40 -6z m115 -13 c-8 -8 -25 10 -19 20 4 6 9 5 15 -3 4 -7 6 -15 4
-17z m488 21 c-7 -2 -19 -2 -25 0 -7 3 -2 5 12 5 14 0 19 -2 13 -5z m1361 -8
c3 -8 1 -15 -4 -15 -6 0 -10 7 -10 15 0 8 2 15 4 15 2 0 6 -7 10 -15z m644 6
c11 -7 11 -9 -1 -14 -16 -6 -27 0 -27 15 0 10 11 10 28 -1z m162 -29 c0 -7 -4
-10 -10 -7 -5 3 -10 16 -10 28 0 18 2 19 10 7 5 -8 10 -21 10 -28z m-2713 22
c-3 -4 -2 -15 4 -25 6 -11 6 -19 0 -19 -5 0 -12 7 -15 16 -6 16 0 34 11 34 4
0 3 -3 0 -6z m1503 3 c0 -2 -9 -12 -19 -21 -19 -17 -19 -17 -14 3 3 12 12 21
19 21 8 0 14 -2 14 -3z m1014 -12 c3 -9 0 -15 -9 -15 -9 0 -12 6 -9 15 4 8 7
15 9 15 2 0 5 -7 9 -15z m-2619 -25 c9 -16 14 -30 13 -30 -2 0 -16 14 -31 30
-21 22 -24 30 -13 30 8 0 22 -13 31 -30z m1545 20 c0 -5 -5 -10 -11 -10 -5 0
-7 5 -4 10 3 6 8 10 11 10 2 0 4 -4 4 -10z m1188 1 c11 -7 11 -9 -1 -14 -9 -3
-18 1 -21 9 -6 16 2 18 22 5z m-2778 -16 c7 -8 8 -15 2 -15 -5 0 -15 7 -22 15
-7 8 -8 15 -2 15 5 0 15 -7 22 -15z m-80 -20 c0 -14 -4 -25 -10 -25 -11 0 -14
33 -3 43 11 11 13 8 13 -18z m2000 15 c20 -6 15 -8 -25 -9 -36 0 -46 2 -35 9
17 11 25 11 60 0z m394 -25 c3 -8 -4 -10 -19 -7 -13 2 -25 12 -28 22 -4 16 -2
17 19 8 12 -6 25 -16 28 -23z m440 16 c10 -10 13 -22 8 -25 -10 -6 -52 21 -52
35 0 16 26 10 44 -10z m71 -20 c-4 -17 -10 -29 -15 -26 -5 3 -4 19 2 36 13 38
22 31 13 -10z m-2826 3 c58 -29 66 -46 19 -38 -36 7 -79 33 -86 52 -6 18 11
15 67 -14z m2917 16 c5 -5 38 -16 73 -24 46 -11 74 -24 95 -46 25 -25 27 -30
12 -30 -13 0 -17 -5 -13 -20 3 -11 2 -20 -3 -20 -12 0 -41 48 -31 52 17 6 -8
48 -29 48 -23 0 -27 -28 -5 -36 22 -9 18 -32 -6 -39 -23 -8 -39 7 -39 36 0 13
-9 16 -47 13 -47 -3 -47 -3 -13 7 19 5 41 10 48 11 6 1 12 5 12 9 0 10 -27 19
-56 19 -15 0 -24 6 -24 15 0 17 11 20 26 5z m-2802 -9 c4 -5 -3 -7 -14 -4 -23
6 -26 13 -6 13 8 0 17 -4 20 -9z m273 -7 c-3 -3 -12 -4 -19 -1 -8 3 -5 6 6 6
11 1 17 -2 13 -5z m1561 -10 c128 -19 162 -33 81 -34 -66 0 -152 -15 -419 -75
-255 -56 -332 -69 -364 -61 -33 8 -33 21 -2 42 29 18 515 142 565 143 18 1 81
-6 139 -15z m107 6 c25 -11 -1 -11 -35 0 -20 6 -21 8 -5 8 11 0 29 -3 40 -8z
m654 -3 c6 -8 8 -17 4 -20 -7 -8 -33 11 -33 24 0 13 16 11 29 -4z m138 -9 c-3
-8 -6 -5 -6 6 -1 11 2 17 5 13 3 -3 4 -12 1 -19z m-2522 1 c13 -6 4 -7 -30 -3
-27 4 -52 8 -54 10 -9 8 65 2 84 -7z m2179 -4 c-5 -12 -10 -13 -20 -4 -19 15
-18 19 6 19 13 0 18 -5 14 -15z m-2269 -15 c23 -26 8 -26 -25 0 -18 14 -21 20
-9 20 9 0 24 -9 34 -20z m2025 -17 c41 -14 107 -31 145 -38 39 -8 95 -21 125
-29 30 -9 68 -16 85 -17 30 0 30 -1 -11 -19 -44 -19 -285 -89 -395 -115 -111
-25 -217 -37 -236 -26 -20 11 -25 8 112 61 44 17 97 42 119 56 36 24 38 28 33
65 -3 21 -4 39 -4 39 1 0 69 -20 152 -44 82 -25 151 -43 153 -41 5 5 -197 70
-338 110 -96 26 -112 33 -70 28 30 -3 89 -17 130 -30z m-2150 5 c0 -6 -6 -5
-15 2 -8 7 -15 14 -15 16 0 2 7 1 15 -2 8 -4 15 -11 15 -16z m40 7 c7 -9 8
-15 2 -15 -5 0 -12 7 -16 15 -3 8 -4 15 -2 15 2 0 9 -7 16 -15z m41 -2 c13
-16 12 -17 -3 -4 -10 7 -18 15 -18 17 0 8 8 3 21 -13z m2284 7 c3 -5 -1 -10
-10 -10 -9 0 -13 5 -10 10 3 6 8 10 10 10 2 0 7 -4 10 -10z m655 -10 c0 -5 -6
-10 -14 -10 -8 0 -18 5 -21 10 -3 6 3 10 14 10 12 0 21 -4 21 -10z m70 -19 c0
-9 7 -25 15 -35 8 -11 15 -28 15 -37 0 -10 12 -27 28 -38 19 -14 22 -20 11
-21 -9 0 -31 18 -50 40 -32 38 -34 38 -45 19 -10 -20 -11 -20 -28 6 -13 20
-15 30 -6 40 6 8 9 22 6 33 -5 16 -2 18 24 14 19 -3 30 -10 30 -21z m-665 -1
c3 -6 -1 -7 -9 -4 -18 7 -21 14 -7 14 6 0 13 -4 16 -10z m199 -5 c-10 -8 -23
-15 -28 -15 -6 0 -1 7 10 15 10 8 23 15 28 15 6 0 1 -7 -10 -15z m-1484 2 c0
-2 -13 -16 -30 -32 -16 -16 -30 -25 -30 -21 0 4 12 18 26 31 25 24 34 29 34
22z m2083 -17 c6 -23 27 -27 27 -6 0 25 18 28 40 6 24 -24 28 -49 5 -30 -9 7
-19 10 -23 6 -4 -4 2 -15 13 -24 11 -10 21 -27 22 -40 l2 -22 -32 23 c-54 40
-62 42 -38 8 40 -56 8 -44 -38 14 -13 17 -32 30 -44 30 -28 0 -37 41 -10 48
44 11 71 7 76 -13z m127 11 c0 -5 -6 -14 -14 -20 -11 -9 -15 -7 -18 7 -4 12 1
18 13 19 11 1 19 -2 19 -6z m-1395 -19 c-3 -3 -11 0 -18 7 -9 10 -8 11 6 5 10
-3 15 -9 12 -12z m81 -17 c23 -21 31 -32 19 -28 -24 8 -84 63 -69 63 6 0 28
-16 50 -35z m644 31 c0 -3 -4 -8 -10 -11 -5 -3 -10 -1 -10 4 0 6 5 11 10 11 6
0 10 -2 10 -4z m-815 -16 c3 -5 -1 -10 -9 -10 -8 0 -18 5 -21 10 -3 6 1 10 9
10 8 0 18 -4 21 -10z m-885 -20 c-23 -18 -31 -21 -46 -19 -4 0 -11 -5 -16 -13
-8 -10 -9 -10 -6 2 4 15 63 50 83 50 6 0 -1 -9 -15 -20z m92 -17 c-4 -34 -6
-35 -18 -18 -12 16 -11 21 3 37 9 10 17 18 18 18 0 0 -1 -17 -3 -37z m738 27
c12 -8 11 -10 -7 -10 -12 0 -25 5 -28 10 -8 13 15 13 35 0z m1035 -16 c9 -14
14 -28 11 -31 -8 -9 -46 27 -46 44 0 21 16 15 35 -13z m-1085 6 c12 -8 11 -10
-7 -10 -12 0 -25 5 -28 10 -8 13 15 13 35 0z m344 1 c3 -5 -1 -11 -9 -15 -9
-3 -15 0 -15 9 0 16 16 20 24 6z m-1074 -21 c0 -19 -11 -26 -23 -14 -8 8 3 34
14 34 5 0 9 -9 9 -20z m1754 0 c10 0 17 -3 13 -6 -10 -10 -68 7 -61 18 4 6 10
6 17 -1 6 -6 20 -11 31 -11z m244 -10 c17 -22 19 -30 8 -30 -7 0 -16 9 -19 21
-3 12 -10 18 -16 14 -7 -3 -8 0 -5 9 8 20 7 21 32 -14z m-1333 10 c7 -12 -2
-12 -30 0 -19 8 -19 9 2 9 12 1 25 -3 28 -9z m316 -7 c13 -16 12 -17 -3 -4
-17 13 -22 21 -14 21 2 0 10 -8 17 -17z m947 -3 c11 -17 10 -20 -7 -20 -22 0
-35 15 -26 30 9 15 19 12 33 -10z m244 -48 c-4 -12 -7 -11 -13 5 -4 12 -12 24
-18 28 -6 3 -11 14 -11 23 1 13 7 10 24 -12 14 -16 22 -36 18 -44z m-2210 28
c3 -16 3 -30 2 -30 -9 0 -24 42 -19 50 10 16 12 12 17 -20z m633 20 c13 -6 15
-9 5 -9 -8 0 -22 4 -30 9 -18 12 -2 12 25 0z m990 0 c-3 -5 -11 -10 -16 -10
-6 0 -7 5 -4 10 3 6 11 10 16 10 6 0 7 -4 4 -10z m-1655 -22 c0 -16 -3 -19
-11 -11 -6 6 -8 16 -5 22 11 17 16 13 16 -11z m610 6 c0 -2 -9 -4 -20 -4 -11
0 -20 4 -20 9 0 5 9 7 20 4 11 -3 20 -7 20 -9z m1790 -19 c-12 -15 -40 -21
-40 -9 0 3 10 14 23 24 24 20 37 9 17 -15z m-2416 -20 c21 -19 45 -35 54 -36
11 0 12 -2 4 -6 -17 -7 -102 45 -102 62 0 21 2 20 44 -20z m1636 31 c0 -3 -4
-8 -10 -11 -5 -3 -10 -1 -10 4 0 6 5 11 10 11 6 0 10 -2 10 -4z m-1672 -46
c22 -22 36 -40 31 -40 -12 0 -79 60 -79 71 0 15 6 11 48 -31z m186 -29 c-6 -7
-84 49 -84 59 0 5 20 -5 44 -23 23 -17 42 -34 40 -36z m-267 52 c-4 -3 5 -21
19 -40 30 -40 18 -44 -19 -5 -21 22 -24 31 -15 40 7 7 14 12 17 12 2 0 1 -3
-2 -7z m47 -43 c6 -9 1 -5 -11 8 -13 13 -23 28 -23 35 0 7 6 3 12 -8 6 -11 16
-27 22 -35z m1661 40 c-3 -5 -11 -10 -16 -10 -6 0 -7 5 -4 10 3 6 11 10 16 10
6 0 7 -4 4 -10z m-45 -20 c0 -5 -12 -10 -27 -10 -22 0 -25 2 -13 10 20 13 40
13 40 0z m-1712 -20 c-12 -19 -28 -27 -28 -14 0 6 30 33 38 34 1 0 -3 -9 -10
-20z m465 13 c-7 -2 -21 -2 -30 0 -10 3 -4 5 12 5 17 0 24 -2 18 -5z m-66 -9
c-3 -3 -12 -4 -19 -1 -8 3 -5 6 6 6 11 1 17 -2 13 -5z m1228 -4 c-3 -5 -12
-10 -18 -10 -7 0 -6 4 3 10 19 12 23 12 15 0z m-1532 -43 c26 4 36 1 40 -11 5
-13 -1 -16 -29 -16 -44 0 -104 25 -104 43 0 25 11 25 35 1 18 -18 30 -22 58
-17z m212 13 c13 -6 15 -9 5 -9 -8 0 -22 4 -30 9 -18 12 -2 12 25 0z m-85 -22
c0 -6 -9 -8 -20 -5 -11 3 -20 1 -20 -4 0 -5 -7 -9 -15 -9 -8 0 -15 7 -15 16 0
9 6 14 13 11 8 -3 20 -1 27 3 16 10 30 4 30 -12z m820 -8 c0 -5 -2 -10 -4 -10
-3 0 -8 5 -11 10 -3 6 -1 10 4 10 6 0 11 -4 11 -10z m-20 -22 c0 -6 -6 -5 -15
2 -8 7 -15 14 -15 16 0 2 7 1 15 -2 8 -4 15 -11 15 -16z m-29 -23 c15 -33 15
-34 -2 -24 -17 9 -39 39 -39 53 0 3 6 6 13 6 6 -1 19 -16 28 -35z m-37 -34
c-2 -2 -15 -1 -29 3 -29 7 -33 31 -8 45 14 7 20 4 29 -17 6 -15 10 -29 8 -31z
m296 29 c0 -13 -11 -13 -30 0 -12 8 -11 10 8 10 12 0 22 -4 22 -10z m-205 -10
c3 -5 2 -10 -4 -10 -5 0 -13 5 -16 10 -3 6 -2 10 4 10 5 0 13 -4 16 -10z m140
0 c3 -5 -1 -10 -9 -10 -9 0 -16 5 -16 10 0 6 4 10 9 10 6 0 13 -4 16 -10z
m-291 -25 c3 -8 1 -15 -3 -15 -5 0 -11 7 -15 15 -3 8 -1 15 3 15 5 0 11 -7 15
-15z m95 -21 c2 -2 -14 -4 -37 -4 -23 0 -42 4 -42 9 0 9 69 4 79 -5z"/>
<path d="M2831 4229 c-70 -12 -77 -19 -19 -19 72 0 141 12 126 21 -15 10 -34
10 -107 -2z"/>
<path d="M2065 4073 c-38 -9 -115 -46 -115 -54 0 -12 1 -12 46 7 22 9 77 25
124 35 l85 18 -60 -1 c-33 0 -69 -3 -80 -5z"/>
<path d="M2105 4015 c-5 -1 -38 -11 -72 -20 -91 -26 -77 -36 20 -14 45 10 88
19 95 19 6 0 12 5 12 10 0 9 -32 12 -55 5z"/>
<path d="M1750 4211 c0 -5 7 -12 15 -15 9 -3 22 -20 30 -38 14 -32 14 -32 15
-7 0 14 -10 35 -23 47 -25 23 -37 28 -37 13z"/>
<path d="M1737 4162 c6 -4 15 -20 19 -36 5 -23 4 -27 -7 -21 -12 7 -12 6 -1
-7 7 -9 17 -29 22 -45 6 -20 8 -22 9 -8 0 11 -3 27 -9 35 -6 9 -5 17 1 21 14
8 -16 69 -34 69 -9 0 -9 -2 0 -8z"/>
<path d="M1690 4071 c0 -6 4 -13 10 -16 6 -3 7 1 4 9 -7 18 -14 21 -14 7z"/>
<path d="M1797 4035 c7 -49 13 -58 13 -19 0 16 -5 36 -10 44 -6 10 -7 2 -3
-25z"/>
<path d="M1831 4025 c0 -5 6 -21 14 -35 8 -14 14 -20 14 -15 0 6 -6 21 -14 35
-8 14 -14 21 -14 15z"/>
<path d="M1710 3981 c0 -12 5 -21 10 -21 6 0 10 6 10 14 0 8 -4 18 -10 21 -5
3 -10 -3 -10 -14z"/>
<path d="M1670 3325 c0 -8 4 -15 10 -15 5 0 7 7 4 15 -4 8 -8 15 -10 15 -2 0
-4 -7 -4 -15z"/>
<path d="M1675 3257 c10 -15 20 -25 23 -22 3 3 -5 16 -17 28 l-23 22 17 -28z"/>
<path d="M1658 3214 c6 -11 18 -27 28 -35 14 -12 16 -11 13 5 -2 10 -15 26
-28 35 -23 15 -24 15 -13 -5z"/>
<path d="M1808 3203 c31 -44 80 -83 105 -83 18 0 16 4 -13 21 -19 12 -53 37
-74 57 l-39 37 21 -32z"/>
<path d="M1755 3180 c29 -36 58 -60 75 -59 10 0 9 3 -5 11 -11 6 -36 25 -55
42 -27 24 -30 26 -15 6z"/>
<path d="M1960 3153 c0 -1 17 -14 38 -28 44 -29 102 -49 102 -34 0 5 -6 9 -12
9 -7 0 -39 13 -70 29 -32 15 -58 26 -58 24z"/>
<path d="M3107 3747 c-42 -17 -76 -32 -74 -34 5 -4 109 32 143 51 44 23 17 17
-69 -17z"/>
<path d="M2510 3659 c8 -8 21 -21 29 -29 12 -12 11 -10 0 9 -9 14 -22 27 -30
29 -11 3 -11 2 1 -9z"/>
<path d="M2592 3644 c15 -16 34 -46 43 -66 18 -44 30 -50 20 -11 -9 35 -41 80
-68 94 -19 10 -18 8 5 -17z"/>
<path d="M2678 3619 c7 -9 17 -30 22 -45 7 -24 8 -25 9 -7 1 12 -9 32 -21 45
-13 13 -17 16 -10 7z"/>
<path d="M2470 3610 c29 -23 48 -26 31 -6 -6 8 -22 16 -34 20 -21 5 -21 4 3
-14z"/>
<path d="M2415 3047 c55 -38 75 -48 75 -40 0 5 -17 19 -39 31 -43 24 -67 30
-36 9z"/>
<path d="M2500 3044 c0 -8 32 -33 43 -34 5 0 5 4 2 10 -8 13 -45 33 -45 24z"/>
<path d="M2896 3563 c-12 -12 -5 -21 12 -16 10 2 24 -3 31 -11 17 -20 32 -21
25 -2 -6 16 -59 38 -68 29z"/>
<path d="M2990 3543 c0 -5 11 -20 25 -33 14 -13 25 -19 25 -13 0 5 -11 20 -25
33 -14 13 -25 19 -25 13z"/>
<path d="M3060 3521 c0 -4 11 -18 25 -31 26 -25 32 -21 15 9 -10 20 -40 36
-40 22z"/>
<path d="M2871 3494 c0 -11 3 -14 6 -6 3 7 2 16 -1 19 -3 4 -6 -2 -5 -13z"/>
<path d="M3150 3492 c0 -5 7 -15 15 -22 8 -7 15 -8 15 -2 0 5 -7 15 -15 22 -8
7 -15 8 -15 2z"/>
<path d="M3240 3450 c6 -11 13 -20 16 -20 2 0 0 9 -6 20 -6 11 -13 20 -16 20
-2 0 0 -9 6 -20z"/>
<path d="M2863 3425 c0 -22 2 -30 4 -17 2 12 2 30 0 40 -3 9 -5 -1 -4 -23z"/>
<path d="M3409 3394 c28 -25 60 -57 71 -71 11 -14 20 -20 20 -12 0 16 -114
129 -131 129 -6 0 12 -21 40 -46z"/>
<path d="M3355 3358 c22 -26 41 -45 43 -43 7 7 -31 54 -56 71 -21 14 -18 8 13
-28z"/>
<path d="M3270 3385 c0 -5 16 -30 35 -54 22 -27 35 -37 35 -27 0 9 -16 33 -35
54 -19 20 -35 33 -35 27z"/>
<path d="M2862 3360 c0 -14 2 -19 5 -12 2 6 2 18 0 25 -3 6 -5 1 -5 -13z"/>
<path d="M3251 3316 c13 -14 26 -23 28 -20 6 6 -30 44 -42 44 -5 0 1 -11 14
-24z"/>
<path d="M2859 2902 c19 -37 51 -73 51 -57 0 12 -54 94 -63 95 -4 0 1 -17 12
-38z"/>
<path d="M3202 2816 c31 -13 73 -33 93 -45 20 -11 33 -16 29 -10 -8 14 -144
79 -164 79 -8 0 11 -11 42 -24z"/>
<path d="M3365 2795 c39 -25 77 -45 85 -45 21 1 -11 25 -82 61 -82 42 -83 36
-3 -16z"/>
<path d="M3461 2792 c0 -10 96 -82 117 -88 9 -3 1 8 -18 26 -39 35 -100 73
-99 62z"/>
<path d="M3550 2770 c0 -5 5 -10 10 -10 6 0 31 -19 55 -41 44 -40 59 -43 30
-6 -16 22 -75 67 -87 67 -4 0 -8 -4 -8 -10z"/>
<path d="M3995 3600 c28 -12 47 -12 40 0 -3 6 -18 10 -33 9 -24 0 -25 -1 -7
-9z"/>
<path d="M3779 3356 c29 -31 35 -33 22 -7 -6 10 -18 22 -28 25 -13 5 -11 1 6
-18z"/>
<path d="M3850 3353 c13 -18 26 -30 29 -28 3 3 -8 18 -23 33 l-29 27 23 -32z"/>
<path d="M3730 3341 c5 -11 15 -23 21 -27 6 -3 3 5 -6 20 -20 30 -30 35 -15 7z"/>
<path d="M3920 3356 c0 -2 11 -24 25 -47 14 -24 25 -38 25 -30 0 7 -9 29 -21
47 -19 31 -29 41 -29 30z"/>
<path d="M4009 3327 c7 -9 17 -32 21 -50 l8 -32 1 31 c1 21 -6 37 -21 50 -19
16 -20 16 -9 1z"/>
<path d="M4079 3308 c4 -28 6 -29 9 -9 2 13 0 27 -5 32 -6 6 -7 -3 -4 -23z"/>
<path d="M4140 3308 c0 -4 9 -22 20 -40 10 -18 25 -58 31 -88 7 -30 14 -47 17
-38 5 26 -25 119 -48 148 -11 14 -20 22 -20 18z"/>
<path d="M4070 3195 c11 -22 20 -46 20 -54 0 -8 2 -12 5 -9 10 9 -5 51 -26 78
-19 24 -19 24 1 -15z"/>
<path d="M4029 3167 c14 -28 28 -46 29 -39 3 11 -42 92 -52 92 -1 0 9 -24 23
-53z"/>
<path d="M4138 3160 c9 -27 17 -48 20 -46 6 6 -18 85 -27 91 -5 3 -2 -17 7
-45z"/>
<path d="M3983 3121 c12 -22 23 -38 25 -36 5 5 -26 63 -37 69 -5 4 0 -12 12
-33z"/>
<path d="M4190 3035 c0 -5 5 -17 10 -25 5 -8 10 -10 10 -5 0 6 -5 17 -10 25
-5 8 -10 11 -10 5z"/>
<path d="M4129 2822 c12 -23 41 -48 41 -35 0 10 -37 53 -46 53 -2 0 0 -8 5
-18z"/>
<path d="M4108 2771 c18 -17 37 -31 44 -31 6 0 -2 10 -18 22 -51 38 -60 41
-26 9z"/>
<path d="M4197 2715 c-4 -11 -10 -27 -13 -35 -5 -12 -3 -12 11 1 9 9 15 25 13
35 -4 18 -4 18 -11 -1z"/>
<path d="M4120 2674 c0 -15 14 -30 37 -43 27 -14 33 -14 33 -1 0 6 -5 10 -12
10 -6 0 -22 10 -35 22 -13 12 -23 17 -23 12z"/>
<path d="M4050 2631 c0 -14 50 -43 68 -38 13 3 11 6 -10 15 -14 6 -29 16 -33
21 -8 13 -25 14 -25 2z"/>
<path d="M4000 2601 c0 -11 25 -21 53 -21 12 0 17 4 12 9 -15 13 -65 23 -65
12z"/>
<path d="M4770 3149 c230 -70 477 -183 654 -299 102 -66 149 -86 95 -40 -131
113 -425 259 -649 323 -109 31 -193 45 -100 16z"/>
<path d="M4710 3047 c159 -70 398 -215 476 -289 30 -28 54 -47 54 -42 0 22
-43 76 -85 107 -71 51 -359 207 -431 234 -94 33 -101 28 -14 -10z"/>
<path d="M4790 3075 c0 -2 24 -10 53 -19 56 -16 169 -85 335 -203 106 -75 144
-91 77 -31 -62 54 -284 196 -357 227 -42 18 -108 34 -108 26z"/>
<path d="M5030 3012 c41 -20 114 -65 161 -100 78 -57 120 -77 104 -52 -11 18
-205 141 -261 166 -85 37 -88 28 -4 -14z"/>
<path d="M630 2804 c-56 -52 -100 -132 -100 -181 0 -41 22 -95 56 -141 40 -51
39 -32 0 27 -69 102 -57 169 52 276 74 73 68 90 -8 19z"/>
<path d="M4992 2763 c30 -32 70 -78 87 -102 39 -55 41 -31 3 30 -30 46 -117
129 -136 129 -6 0 15 -26 46 -57z"/>
<path d="M527 2748 c-62 -81 -73 -149 -36 -225 75 -154 519 -379 954 -483 554
-133 1669 -197 2333 -135 515 47 948 147 1367 312 335 133 442 203 484 316 15
40 14 133 -3 165 -16 31 -56 70 -56 55 0 -6 7 -17 17 -24 22 -19 43 -72 43
-110 0 -115 -65 -184 -263 -279 -678 -325 -1487 -465 -2487 -430 -974 34
-1495 122 -1946 328 -409 188 -528 330 -408 488 19 25 33 48 31 51 -3 2 -16
-11 -30 -29z"/>
<path d="M631 2724 c-42 -53 -40 -131 6 -202 38 -58 39 -46 3 23 -38 71 -38
99 0 158 31 50 25 65 -9 21z"/>
<path d="M5090 2739 c0 -4 9 -26 20 -50 28 -63 25 -114 -10 -176 -39 -68 -108
-122 -240 -188 -279 -140 -600 -230 -1010 -282 -194 -25 -1011 -25 -1280 1
-703 65 -1083 144 -1356 281 -49 25 -90 43 -91 41 -6 -6 113 -70 193 -104 280
-123 849 -228 1419 -263 246 -15 941 -6 1110 15 411 50 710 133 1010 280 145
71 212 123 255 200 40 68 42 152 5 211 -13 22 -25 37 -25 34z"/>
<path d="M676 2660 c-21 -54 -20 -93 4 -121 l20 -24 -16 36 c-15 34 -15 40 1
88 21 63 14 78 -9 21z"/>
<path d="M1881 2636 c7 -8 118 -10 126 -3 3 4 -24 7 -62 7 -38 0 -66 -2 -64
-4z"/>
<path d="M1325 2480 c6 -10 70 -40 86 -40 24 0 4 19 -34 34 -49 19 -61 20 -52
6z"/>
<path d="M3815 2305 c50 -12 99 -26 110 -30 16 -5 17 -5 4 4 -20 13 -158 51
-184 51 -11 -1 21 -12 70 -25z"/>
<path d="M2141 3014 c0 -11 3 -14 6 -6 3 7 2 16 -1 19 -3 4 -6 -2 -5 -13z"/>
<path d="M4165 2440 c-7 -12 2 -30 16 -30 5 0 9 9 9 20 0 21 -15 27 -25 10z"/>
</g>
</svg>
