<?xml version="1.0" standalone="no"?>
<!DOCTYPE svg PUBLIC "-//W3C//DTD SVG 20010904//EN"
 "http://www.w3.org/TR/2001/REC-SVG-20010904/DTD/svg10.dtd">
<svg version="1.0" xmlns="http://www.w3.org/2000/svg"
 width="800.000000pt" height="800.000000pt" viewBox="0 0 800.000000 800.000000"
 preserveAspectRatio="xMidYMid meet">

<g transform="translate(0.000000,800.000000) scale(0.100000,-0.100000)"
fill="#000000" stroke="none">
<path d="M3954 7333 c-146 -241 -183 -331 -164 -401 24 -90 85 -127 210 -127
72 0 92 4 129 25 58 33 85 79 85 147 0 42 -8 68 -46 140 -68 130 -154 277
-164 280 -5 2 -28 -27 -50 -64z"/>
<path d="M3840 5885 l0 -715 160 0 160 0 0 715 0 714 -42 -16 c-26 -9 -74 -16
-118 -16 -44 0 -92 7 -117 16 l-43 16 0 -714z"/>
<path d="M2830 4912 c0 -33 3 -114 7 -181 l6 -121 161 5 c89 3 624 15 1191 26
566 11 1032 23 1035 26 3 2 7 72 8 154 l4 149 -1206 0 -1206 0 0 -58z"/>
<path d="M5110 4444 c-8 -1 -518 -36 -1134 -76 l-1118 -73 7 -146 7 -147 -54
-6 c-29 -3 -258 -17 -508 -31 -250 -14 -473 -28 -495 -30 l-40 -5 17 -336 c9
-185 19 -338 21 -340 2 -3 76 2 163 11 88 9 449 45 804 80 355 35 1059 105
1565 155 1905 189 2086 207 2091 213 4 3 9 117 13 252 4 184 3 245 -6 245 -15
0 -987 -58 -1115 -66 l-98 -7 0 157 0 156 -52 -1 c-29 -1 -60 -3 -68 -5z"/>
<path d="M923 2883 c4 -93 10 -288 13 -435 4 -147 10 -272 14 -279 10 -15
-201 4 2555 -224 1298 -108 2623 -218 2945 -244 330 -28 587 -45 591 -40 7 12
42 787 35 797 -3 5 -40 12 -83 15 -146 12 -518 47 -551 53 l-32 5 6 236 7 235
-179 -6 c-445 -17 -3412 -106 -3517 -106 -72 0 -450 32 -958 80 -461 44 -841
80 -845 80 -4 0 -4 -75 -1 -167z"/>
<path d="M973 1258 c4 -117 10 -313 14 -435 l6 -223 3001 0 3002 0 17 381 c10
210 16 383 15 384 -2 1 -331 7 -733 14 -401 6 -1252 20 -1890 31 -638 11
-1572 26 -2075 34 -503 9 -1016 18 -1139 21 l-224 6 6 -213z"/>
</g>
</svg>
